<svg xmlns="http://www.w3.org/2000/svg" xmlns:xlink="http://www.w3.org/1999/xlink" viewBox="0 0 300 300"><defs><style>.cls-1{fill:#141238;}.cls-2{fill:#231f20;}.cls-3,.cls-4,.cls-5,.cls-6{fill:none;}.cls-3{stroke:#141238;}.cls-3,.cls-5,.cls-6{stroke-width:14.05px;}.cls-5{stroke:url(#New_Gradient_Swatch_3);}.cls-6{stroke:url(#New_Gradient_Swatch_3-2);}</style><linearGradient id="New_Gradient_Swatch_3" x1="41.78" y1="153.4" x2="258.22" y2="153.4" gradientTransform="translate(152.4 -61.14) rotate(45)" gradientUnits="userSpaceOnUse"><stop offset="0" stop-color="#825cf6"/><stop offset="0" stop-color="#825cf6"/><stop offset="1" stop-color="#825cf6"/></linearGradient><linearGradient id="New_Gradient_Swatch_3-2" x1="15.08" y1="153.4" x2="284.92" y2="153.4" gradientTransform="matrix(1, 0, 0, 1, 0, 0)" xlink:href="#New_Gradient_Swatch_3"/></defs><g id="Layer_1" data-name="Layer 1"><path class="cls-1" d="M105.87,118.14v-6.71a16.14,16.14,0,0,0,8.85-5.06,16.92,16.92,0,0,0,2.33-3.7h6.33v71.51H112.87v-56Z"/><path class="cls-1" d="M130.09,125.34v-5c0-4.77.68-9.44,2.72-12.85s5.55-5.64,11.29-5.64c5.35,0,9,2,11.09,5.16s2.92,7.68,2.92,12.65c0,7.29-2.72,16-6.13,24a175.28,175.28,0,0,1-10.31,20H158.3v10.41H129.8V163.77c3.21-5,6.13-10,8.75-15.08a98.17,98.17,0,0,0,6-14.11c1.65-5,2.92-9.83,3-14.2a22.27,22.27,0,0,0-.58-5.84c-.49-1.66-1.36-2.92-2.92-2.92s-2.33,1.07-2.82,2.63a22.49,22.49,0,0,0-.68,6.13v5Z"/><path class="cls-1" d="M193,159.49a19.52,19.52,0,0,1-1.76,7.78,13.25,13.25,0,0,1-4.18,5.25A12.45,12.45,0,0,1,179,175a12.78,12.78,0,0,1-8.18-2.44,13.07,13.07,0,0,1-4.08-5.25,19.35,19.35,0,0,1-1.75-7.78V117.36a19.3,19.3,0,0,1,1.75-7.69A12.31,12.31,0,0,1,179,101.89a13,13,0,0,1,8.07,2.43,13.6,13.6,0,0,1,4.18,5.35,19.48,19.48,0,0,1,1.76,7.69Zm-10.51-42.13a6.51,6.51,0,0,0-1.36-4.48,3.07,3.07,0,0,0-2.14-.77,3.26,3.26,0,0,0-3.12,2.62,7.53,7.53,0,0,0-.39,2.63v42.13A6.2,6.2,0,0,0,177,164a2.79,2.79,0,0,0,2.05.78,3.07,3.07,0,0,0,3.11-2.63,6.8,6.8,0,0,0,.39-2.62Z"/><path class="cls-2" d="M105.87,118.14v-6.71a16.14,16.14,0,0,0,8.85-5.06,16.92,16.92,0,0,0,2.33-3.7h6.33v71.51H112.87v-56Z"/><path class="cls-2" d="M130.09,125.34v-5c0-4.77.68-9.44,2.72-12.85s5.55-5.64,11.29-5.64c5.35,0,9,2,11.09,5.16s2.92,7.68,2.92,12.65c0,7.29-2.72,16-6.13,24a175.28,175.28,0,0,1-10.31,20H158.3v10.41H129.8V163.77c3.21-5,6.13-10,8.75-15.08a98.17,98.17,0,0,0,6-14.11c1.65-5,2.92-9.83,3-14.2a22.27,22.27,0,0,0-.58-5.84c-.49-1.66-1.36-2.92-2.92-2.92s-2.33,1.07-2.82,2.63a22.49,22.49,0,0,0-.68,6.13v5Z"/><path class="cls-2" d="M193,159.49a19.52,19.52,0,0,1-1.76,7.78,13.25,13.25,0,0,1-4.18,5.25A12.45,12.45,0,0,1,179,175a12.78,12.78,0,0,1-8.18-2.44,13.07,13.07,0,0,1-4.08-5.25,19.35,19.35,0,0,1-1.75-7.78V117.36a19.3,19.3,0,0,1,1.75-7.69A12.31,12.31,0,0,1,179,101.89a13,13,0,0,1,8.07,2.43,13.6,13.6,0,0,1,4.18,5.35,19.48,19.48,0,0,1,1.76,7.69Zm-10.51-42.13a6.51,6.51,0,0,0-1.36-4.48,3.07,3.07,0,0,0-2.14-.77,3.26,3.26,0,0,0-3.12,2.62,7.53,7.53,0,0,0-.39,2.63v42.13A6.2,6.2,0,0,0,177,164a2.79,2.79,0,0,0,2.05.78,3.07,3.07,0,0,0,3.11-2.63,6.8,6.8,0,0,0,.39-2.62Z"/><path class="cls-1" d="M145.45,198.51a9.63,9.63,0,0,1,2.46,7v13h-6.8V206.43a4.56,4.56,0,0,0-1.15-3.34,4.75,4.75,0,0,0-6.27,0,4.56,4.56,0,0,0-1.15,3.34v12.12h-6.79V206.43a4.6,4.6,0,0,0-1.14-3.34,4.16,4.16,0,0,0-3.15-1.18,4.12,4.12,0,0,0-3.13,1.18,4.6,4.6,0,0,0-1.14,3.34v12.12h-6.84V196.23h6.84V199a7.17,7.17,0,0,1,2.72-2.22,8.49,8.49,0,0,1,3.8-.82,9.3,9.3,0,0,1,4.5,1.08,7.72,7.72,0,0,1,3.1,3.08,8.9,8.9,0,0,1,3.15-3,8.51,8.51,0,0,1,4.37-1.16A8.83,8.83,0,0,1,145.45,198.51Z"/><path class="cls-1" d="M155.21,192.85a3.61,3.61,0,0,1,0-5.28,4.54,4.54,0,0,1,5.83,0,3.63,3.63,0,0,1,0,5.28,4.54,4.54,0,0,1-5.83,0Zm6.33,3.38v22.32h-6.83V196.23Z"/><path class="cls-1" d="M188.36,198.53a9.9,9.9,0,0,1,2.34,7v13h-6.8V206.43a4.85,4.85,0,0,0-1.16-3.48,4.55,4.55,0,0,0-6.24,0,4.89,4.89,0,0,0-1.16,3.48v12.12H168.5V196.23h6.84v3a7.23,7.23,0,0,1,2.8-2.34,8.85,8.85,0,0,1,4-.86A8.07,8.07,0,0,1,188.36,198.53Z"/><circle class="cls-3" cx="150" cy="153.4" r="101.19" transform="translate(-64.53 151) rotate(-45)"/><rect class="cls-4" x="7.75" y="18.71" width="284.5" height="246.69"/><circle class="cls-5" cx="150" cy="153.4" r="101.19" transform="translate(-64.53 151) rotate(-45)"/><path class="cls-6" d="M150,281.29A127.9,127.9,0,1,0,22.11,153.39,127.89,127.89,0,0,0,150,281.29Z"/></g></svg>