<svg xmlns="http://www.w3.org/2000/svg" xmlns:xlink="http://www.w3.org/1999/xlink" viewBox="0 0 300 300"><defs><style>.cls-1{fill:#141238;}.cls-2,.cls-3{fill:none;stroke-width:15.68px;}.cls-2{stroke:#dfd7f6;}.cls-3{stroke:url(#New_Gradient_Swatch_3);}</style><linearGradient id="New_Gradient_Swatch_3" x1="150" y1="150" x2="270.77" y2="150" gradientUnits="userSpaceOnUse"><stop offset="0" stop-color="#825cf6"/><stop offset="0" stop-color="#825cf6"/><stop offset="1" stop-color="#825cf6"/></linearGradient></defs><g id="Layer_1" data-name="Layer 1"><path class="cls-1" d="M124.29,140.08V129.92c5.08-.34,7.45-1.36,8.47-3.73a10,10,0,0,0,.79-4.4v-6.67a36.61,36.61,0,0,0-.45-7.11c-.45-2.15-1.47-3.61-3.39-3.61-1.47,0-2.37.67-2.82,2.82s-.79,5.76-.79,11.29h-12c0-4.63.11-11,2.14-16s5.76-8.81,13.44-8.81,11.63,4,13.67,8.13a23.8,23.8,0,0,1,2.14,9.71c0,12.31-2.14,18.18-5.87,21.91l-.11.11c5.87,4.63,7,13.21,7,22.81a23.2,23.2,0,0,1-.12,2.37,36.74,36.74,0,0,1-2,9.49,16.14,16.14,0,0,1-7.11,8.81,13.06,13.06,0,0,1-6.55,1.47c-7.68,0-11.64-3.84-13.78-8.92s-2.37-11.3-2.37-15.93h12c0,5.54.34,9,1,11.18s1.7,2.94,3.17,2.94c1.92,0,2.93-1.47,3.38-3.5a34.14,34.14,0,0,0,.46-7c0-2.6,0-5,.11-7.12,0-4.06-.79-6.89-3.39-8.58a13.19,13.19,0,0,0-6-1.47Z"/><path class="cls-1" d="M185.61,160.52a22.63,22.63,0,0,1-2,9,15.58,15.58,0,0,1-4.86,6.09c-2.26,1.81-5.3,2.83-9.37,2.83s-7.23-1-9.49-2.83a15.33,15.33,0,0,1-4.74-6.09,22.63,22.63,0,0,1-2-9v-48.9a22.52,22.52,0,0,1,2-8.92,14.3,14.3,0,0,1,14.23-9,15.19,15.19,0,0,1,9.37,2.82,15.85,15.85,0,0,1,4.86,6.21,22.52,22.52,0,0,1,2,8.92Zm-12.19-48.9a7.51,7.51,0,0,0-1.59-5.19,3.47,3.47,0,0,0-2.48-.91c-2.15,0-3.16,1.59-3.61,3a8.65,8.65,0,0,0-.46,3.05v48.9a7.22,7.22,0,0,0,1.7,5.2,3.23,3.23,0,0,0,2.37.9c2.15,0,3.16-1.36,3.61-3.05a7.87,7.87,0,0,0,.46-3Z"/><path class="cls-1" d="M145.47,204a9.59,9.59,0,0,1,2.46,7v13h-6.8V211.89a4.62,4.62,0,0,0-1.14-3.34,4.77,4.77,0,0,0-6.28,0,4.62,4.62,0,0,0-1.14,3.34V224h-6.8V211.89a4.62,4.62,0,0,0-1.14-3.34,4.77,4.77,0,0,0-6.28,0,4.62,4.62,0,0,0-1.14,3.34V224h-6.84V201.69h6.84v2.8a7.44,7.44,0,0,1,2.72-2.22,8.52,8.52,0,0,1,3.8-.82,9.24,9.24,0,0,1,4.5,1.08,7.72,7.72,0,0,1,3.1,3.08,9,9,0,0,1,3.16-3,8.6,8.6,0,0,1,4.36-1.16A8.82,8.82,0,0,1,145.47,204Z"/><path class="cls-1" d="M155.23,198.31a3.44,3.44,0,0,1-1.14-2.62,3.48,3.48,0,0,1,1.14-2.66,4.13,4.13,0,0,1,2.94-1.06,4.07,4.07,0,0,1,2.9,1.06,3.48,3.48,0,0,1,1.14,2.66,3.44,3.44,0,0,1-1.14,2.62,4.07,4.07,0,0,1-2.9,1.06A4.13,4.13,0,0,1,155.23,198.31Zm6.34,3.38V224h-6.84V201.69Z"/><path class="cls-1" d="M188.35,204a9.9,9.9,0,0,1,2.34,7v13h-6.8V211.89a4.88,4.88,0,0,0-1.16-3.48,4.55,4.55,0,0,0-6.24,0,4.92,4.92,0,0,0-1.16,3.48V224h-6.84V201.69h6.84v3a7.23,7.23,0,0,1,2.8-2.34,9,9,0,0,1,4-.86A8.1,8.1,0,0,1,188.35,204Z"/><path class="cls-2" d="M150,262.93A112.93,112.93,0,1,0,37.07,150,112.93,112.93,0,0,0,150,262.93Z"/><path class="cls-3" d="M150,262.93a112.93,112.93,0,0,0,0-225.86"/></g></svg>