<svg xmlns="http://www.w3.org/2000/svg" xmlns:xlink="http://www.w3.org/1999/xlink" viewBox="0 0 300 300"><defs><style>.cls-1{fill:#141238;}.cls-2,.cls-3,.cls-4{fill:none;stroke-width:15.68px;}.cls-2{stroke:#dfd7f6;}.cls-3{stroke:url(#New_Gradient_Swatch_3);}.cls-4{stroke:url(#New_Gradient_Swatch_3-2);}</style><linearGradient id="New_Gradient_Swatch_3" x1="150" y1="89.61" x2="270.77" y2="89.61" gradientUnits="userSpaceOnUse"><stop offset="0" stop-color="#825cf6"/><stop offset="0" stop-color="#825cf6"/><stop offset="1" stop-color="#825cf6"/></linearGradient><linearGradient id="New_Gradient_Swatch_3-2" x1="29.22" y1="210.39" x2="270.78" y2="210.39" xlink:href="#New_Gradient_Swatch_3"/></defs><g id="Layer_1" data-name="Layer 1"><path class="cls-1" d="M132.48,158.91H113.62V148.18L131.46,94h12.2v54.21h5.64v10.73h-5.64V177H132.48ZM124,148.18h8.47V119.72h-.68l-.68,2.48Z"/><path class="cls-1" d="M173.58,137.67c0-3.5-1.24-6.09-3.84-6.09-1.35,0-2.48,1-3.38,2.25a7.85,7.85,0,0,0-1.36,3.84H154.72V94H184.2v12.08h-19v17.28a15.92,15.92,0,0,1,4.51-2.48,4.8,4.8,0,0,1,2.49-.34c6.32,0,9.71,3.61,11.52,7.57a25.15,25.15,0,0,1,2,9.59V156.2c0,4-.23,9.26-2.37,13.66s-6.21,8-13.55,8c-7.57,0-11.41-3.5-13.56-8.47s-2.37-11.07-2.37-16.6h12.2v3.27c0,4.18.23,7.12.79,8.7s1.47,2.48,2.94,2.48c1.24,0,2.25-.79,2.82-2.37s.9-4.52.9-8.69Z"/><path class="cls-1" d="M145.47,203.36a9.61,9.61,0,0,1,2.46,7v13h-6.8V211.28a4.62,4.62,0,0,0-1.14-3.34,4.77,4.77,0,0,0-6.28,0,4.62,4.62,0,0,0-1.14,3.34V223.4h-6.8V211.28a4.62,4.62,0,0,0-1.14-3.34,4.77,4.77,0,0,0-6.28,0,4.62,4.62,0,0,0-1.14,3.34V223.4h-6.84V201.08h6.84v2.8a7.44,7.44,0,0,1,2.72-2.22,8.65,8.65,0,0,1,3.8-.82,9.24,9.24,0,0,1,4.5,1.08,7.72,7.72,0,0,1,3.1,3.08,9.2,9.2,0,0,1,3.16-3,8.6,8.6,0,0,1,4.36-1.16A8.82,8.82,0,0,1,145.47,203.36Z"/><path class="cls-1" d="M155.23,197.7a3.42,3.42,0,0,1-1.14-2.62,3.49,3.49,0,0,1,1.14-2.66,4.18,4.18,0,0,1,2.94-1.06,4.13,4.13,0,0,1,2.9,1.06,3.49,3.49,0,0,1,1.14,2.66,3.42,3.42,0,0,1-1.14,2.62,4.08,4.08,0,0,1-2.9,1.06A4.13,4.13,0,0,1,155.23,197.7Zm6.34,3.38V223.4h-6.84V201.08Z"/><path class="cls-1" d="M188.35,203.38a9.92,9.92,0,0,1,2.34,7v13h-6.8V211.28a4.92,4.92,0,0,0-1.16-3.48,4.55,4.55,0,0,0-6.24,0,4.92,4.92,0,0,0-1.16,3.48V223.4h-6.84V201.08h6.84v3a7.33,7.33,0,0,1,2.8-2.34,8.93,8.93,0,0,1,4-.86A8.1,8.1,0,0,1,188.35,203.38Z"/><path class="cls-2" d="M150,262.93A112.93,112.93,0,1,0,37.07,150,112.93,112.93,0,0,0,150,262.93Z"/><path class="cls-3" d="M262.93,150A112.93,112.93,0,0,0,150,37.07"/><path class="cls-4" d="M37.07,150a112.93,112.93,0,0,0,225.86,0"/></g></svg>