<svg xmlns="http://www.w3.org/2000/svg" xmlns:xlink="http://www.w3.org/1999/xlink" viewBox="0 0 300 300"><defs><style>.cls-1{fill:#141238;}.cls-2,.cls-3{fill:none;stroke-width:15.68px;}.cls-2{stroke:#141238;}.cls-3{stroke:url(#New_Gradient_Swatch_3);}</style><linearGradient id="New_Gradient_Swatch_3" x1="29.23" y1="150" x2="270.77" y2="150" gradientUnits="userSpaceOnUse"><stop offset="0" stop-color="#825cf6"/><stop offset="0" stop-color="#825cf6"/><stop offset="1" stop-color="#825cf6"/></linearGradient></defs><g id="Layer_1" data-name="Layer 1"><path class="cls-1" d="M146.71,159.92a22.79,22.79,0,0,1-2.37,10.39c-2.15,4.07-6.22,7.57-13.56,7.57-7.56,0-11.4-3.5-13.55-7.57a22.79,22.79,0,0,1-2.37-10.39v-47.2c0-2.82.11-7.91,2.26-12.08s6-7.57,13.66-7.57,11.52,3.5,13.67,7.57,2.26,9.26,2.26,12.08v5.19h-12.2c0-5.53-.11-9.14-.56-11.29s-1.36-2.94-3.17-2.94a2.8,2.8,0,0,0-2.93,2.15,20.64,20.64,0,0,0-.79,6.89v14.79a11.88,11.88,0,0,1,6.1-2c6.32,0,9.71,3.27,11.51,7a25.4,25.4,0,0,1,2,10.5Zm-19.65,3.62a3.83,3.83,0,0,0,3.72,3.72c2.6,0,3.73-2.71,3.73-3.72V138.69c0-1-1.13-3.72-3.73-3.72a3.69,3.69,0,0,0-3.72,3.38Z"/><path class="cls-1" d="M186,159.92a22.63,22.63,0,0,1-2,9,15.49,15.49,0,0,1-4.85,6.1c-2.26,1.8-5.31,2.82-9.37,2.82s-7.23-1-9.49-2.82a15.18,15.18,0,0,1-4.74-6.1,22.63,22.63,0,0,1-2-9V111a22.53,22.53,0,0,1,2-8.93,14.3,14.3,0,0,1,14.23-9,15.21,15.21,0,0,1,9.37,2.82A15.8,15.8,0,0,1,184,102.1a22.53,22.53,0,0,1,2,8.93ZM173.81,111a7.55,7.55,0,0,0-1.58-5.2,3.53,3.53,0,0,0-2.48-.9,3.77,3.77,0,0,0-3.62,3,8.62,8.62,0,0,0-.45,3v48.89a7.23,7.23,0,0,0,1.69,5.2,3.28,3.28,0,0,0,2.38.9c2.14,0,3.16-1.35,3.61-3.05a7.85,7.85,0,0,0,.45-3.05Z"/><path class="cls-1" d="M145.47,203.37a9.59,9.59,0,0,1,2.46,7v13h-6.8V211.29A4.62,4.62,0,0,0,140,208a4.77,4.77,0,0,0-6.28,0,4.62,4.62,0,0,0-1.14,3.34v12.12h-6.8V211.29a4.62,4.62,0,0,0-1.14-3.34,4.77,4.77,0,0,0-6.28,0,4.62,4.62,0,0,0-1.14,3.34v12.12h-6.83V201.09h6.83v2.8a7.34,7.34,0,0,1,2.72-2.22,8.52,8.52,0,0,1,3.8-.82,9.24,9.24,0,0,1,4.5,1.08,7.66,7.66,0,0,1,3.1,3.08,9,9,0,0,1,3.16-3,8.6,8.6,0,0,1,4.36-1.16A8.82,8.82,0,0,1,145.47,203.37Z"/><path class="cls-1" d="M155.23,197.71a3.63,3.63,0,0,1,0-5.28,4.13,4.13,0,0,1,2.94-1.06,4.07,4.07,0,0,1,2.9,1.06,3.63,3.63,0,0,1,0,5.28,4.07,4.07,0,0,1-2.9,1.06A4.13,4.13,0,0,1,155.23,197.71Zm6.34,3.38v22.32h-6.84V201.09Z"/><path class="cls-1" d="M188.35,203.39a9.9,9.9,0,0,1,2.34,7v13h-6.8V211.29a4.85,4.85,0,0,0-1.16-3.48,4.55,4.55,0,0,0-6.24,0,4.89,4.89,0,0,0-1.16,3.48v12.12h-6.84V201.09h6.84v3a7.23,7.23,0,0,1,2.8-2.34,8.85,8.85,0,0,1,4-.86A8.1,8.1,0,0,1,188.35,203.39Z"/><path class="cls-2" d="M150,262.93A112.93,112.93,0,1,0,37.07,150,112.93,112.93,0,0,0,150,262.93Z"/><path class="cls-3" d="M150,262.93A112.93,112.93,0,1,0,37.07,150,112.93,112.93,0,0,0,150,262.93Z"/></g></svg>