<svg xmlns="http://www.w3.org/2000/svg" viewBox="0 0 500 500"><g id="freepik--Floor--inject-10"><ellipse cx="250" cy="355.33" rx="228.56" ry="134.65" style="fill:#f5f5f5"></ellipse></g><g id="freepik--Shadows--inject-10"><ellipse cx="250.97" cy="464.57" rx="28.82" ry="16.98" style="fill:#e0e0e0"></ellipse><ellipse cx="98.8" cy="365.47" rx="28.82" ry="16.98" style="fill:#e0e0e0"></ellipse><ellipse cx="364.77" cy="424.67" rx="21.08" ry="12.42" style="fill:#e0e0e0"></ellipse><ellipse cx="150.89" cy="325.78" rx="21.08" ry="12.42" style="fill:#e0e0e0"></ellipse><path d="M335.45,377.88l-78.36-45.24a16.33,16.33,0,0,0-16.34,0l-76.2,44.09a3.8,3.8,0,0,0,0,6.58l78.36,45.24a16.33,16.33,0,0,0,16.34,0l76.2-44.1A3.79,3.79,0,0,0,335.45,377.88Z" style="fill:#e0e0e0"></path></g><g id="freepik--Flags--inject-10"><path d="M139,276.45v49.34h0c0,1.75,1.16,3.51,3.49,4.85,4.64,2.69,12.18,2.69,16.82,0,2.32-1.34,3.49-3.1,3.49-4.85h0V276.45Z" style="fill:#37474f"></path><path d="M159.27,281.3c-4.64,2.69-12.18,2.69-16.82,0s-4.65-7,0-9.71,12.18-2.68,16.82,0S163.92,278.62,159.27,281.3Z" style="fill:#455a64"></path><path d="M148.06,23.75v252h0a1.4,1.4,0,0,0,.81,1.14,4.36,4.36,0,0,0,4,0,1.41,1.41,0,0,0,.82-1.14h0v-252Z" style="fill:#37474f"></path><path d="M152.83,24.89a4.36,4.36,0,0,1-4,0,1.2,1.2,0,0,1,0-2.27,4.36,4.36,0,0,1,4,0A1.2,1.2,0,0,1,152.83,24.89Z" style="fill:#455a64"></path><path d="M123.18,125.36v42.12a31,31,0,0,0,5.72,17.92,88,88,0,0,1,9.85,18.13,2.79,2.79,0,0,0,5.38-1v-27.8A26,26,0,0,0,141,162.38l-2.11-3.93Z" style="fill:#BA68C8"></path><path d="M148.06,49.49s-7.73,23-14,38.45-15.79,33-7.94,47.85,12.83,22.66,12.83,22.66-2.78-4.53,1-19.2,8.11-21.94,8.11-21.94Z" style="fill:#BA68C8"></path><path d="M148.06,49.49s-7.73,23-14,38.45-15.79,33-7.94,47.85,12.83,22.66,12.83,22.66-2.78-4.53,1-19.2,8.11-21.94,8.11-21.94Z" style="opacity:0.30000000000000004"></path><path d="M144.13,174.71h0a55.09,55.09,0,0,1-4,20.72c-1.19,2.94-2.71,6.53-4.64,10.84-7.14,15.92-8.07,18.84-8.07,18.84v44.05a34,34,0,0,0,6.28-9.65c1.27-3.27,5.1-11.85,7.76-17.75a30.85,30.85,0,0,0,2.72-12.66V174.71Z" style="fill:#BA68C8"></path><path d="M144.13,174.71h0a55.09,55.09,0,0,1-4,20.72c-1.19,2.94-2.71,6.53-4.64,10.84-7.14,15.92-8.07,18.84-8.07,18.84v44.05a34,34,0,0,0,6.28-9.65c1.27-3.27,5.1-11.85,7.76-17.75a30.85,30.85,0,0,0,2.72-12.66V174.71Z" style="opacity:0.30000000000000004"></path><path d="M150.9,51.94a5.2,5.2,0,0,1-2.55-.62,2.07,2.07,0,0,1-1.2-1.76.5.5,0,0,1,.5-.5.51.51,0,0,1,.5.5,1.17,1.17,0,0,0,.7.9,4.63,4.63,0,0,0,4.09,0,1.17,1.17,0,0,0,.7-.9.5.5,0,0,1,1,0,2.09,2.09,0,0,1-1.2,1.76A5.19,5.19,0,0,1,150.9,51.94Z" style="fill:#BA68C8"></path><path d="M150.89,118a5.19,5.19,0,0,1-2.54-.62,2.07,2.07,0,0,1-1.2-1.76.5.5,0,0,1,.5-.5.5.5,0,0,1,.5.5c0,.31.25.63.7.89a4.6,4.6,0,0,0,4.09,0c.45-.26.7-.58.7-.89a.5.5,0,0,1,1,0,2.09,2.09,0,0,1-1.2,1.76A5.2,5.2,0,0,1,150.89,118Z" style="fill:#BA68C8"></path><path d="M352.87,375.49v49.34h0c0,1.76,1.16,3.52,3.48,4.86,4.65,2.68,12.18,2.68,16.82,0,2.33-1.34,3.49-3.1,3.49-4.86h0V375.49Z" style="fill:#37474f"></path><path d="M373.18,380.35c-4.64,2.68-12.17,2.68-16.82,0s-4.65-7,0-9.71,12.18-2.68,16.82,0S377.83,377.67,373.18,380.35Z" style="fill:#455a64"></path><path d="M362,122.8v252h0a1.4,1.4,0,0,0,.81,1.14,4.36,4.36,0,0,0,3.95,0,1.39,1.39,0,0,0,.82-1.14h0v-252Z" style="fill:#37474f"></path><ellipse cx="364.77" cy="122.8" rx="2.79" ry="1.61" style="fill:#455a64"></ellipse><path d="M337.09,224.4v42.13a30.92,30.92,0,0,0,5.72,17.91,87.93,87.93,0,0,1,9.85,18.14,2.79,2.79,0,0,0,5.38-1v-27.8a26.13,26.13,0,0,0-3.1-12.33l-2.11-3.93Z" style="fill:#BA68C8"></path><path d="M362,148.54s-7.73,23-14.05,38.45-15.79,33-7.93,47.84,12.83,22.67,12.83,22.67-2.78-4.53,1-19.2S362,216.36,362,216.36Z" style="fill:#BA68C8"></path><path d="M362,148.54s-7.73,23-14.05,38.45-15.79,33-7.93,47.84,12.83,22.67,12.83,22.67-2.78-4.53,1-19.2S362,216.36,362,216.36Z" style="opacity:0.30000000000000004"></path><path d="M358,273.76h0a55.12,55.12,0,0,1-4,20.72c-1.2,2.94-2.72,6.53-4.65,10.84-7.14,15.92-8.07,18.84-8.07,18.84v44a33.77,33.77,0,0,0,6.29-9.64c1.26-3.28,5.09-11.85,7.75-17.75A30.85,30.85,0,0,0,358,328.15V273.76Z" style="fill:#BA68C8"></path><path d="M358,273.76h0a55.12,55.12,0,0,1-4,20.72c-1.2,2.94-2.72,6.53-4.65,10.84-7.14,15.92-8.07,18.84-8.07,18.84v44a33.77,33.77,0,0,0,6.29-9.64c1.26-3.28,5.09-11.85,7.75-17.75A30.85,30.85,0,0,0,358,328.15V273.76Z" style="opacity:0.30000000000000004"></path><path d="M364.81,151a5.23,5.23,0,0,1-2.55-.62,2.09,2.09,0,0,1-1.2-1.76.5.5,0,0,1,1,0,1.17,1.17,0,0,0,.7.89,4.6,4.6,0,0,0,4.09,0,1.14,1.14,0,0,0,.7-.89.5.5,0,0,1,.5-.5.5.5,0,0,1,.5.5,2.07,2.07,0,0,1-1.2,1.76A5.19,5.19,0,0,1,364.81,151Z" style="fill:#BA68C8"></path><path d="M364.81,217a5.12,5.12,0,0,1-2.55-.62,2.08,2.08,0,0,1-1.2-1.75.5.5,0,0,1,1,0c0,.31.26.63.7.89a4.6,4.6,0,0,0,4.09,0c.45-.26.7-.58.7-.89a.5.5,0,0,1,.5-.5.5.5,0,0,1,.5.5,2.06,2.06,0,0,1-1.2,1.75A5.08,5.08,0,0,1,364.81,217Z" style="fill:#BA68C8"></path></g><g id="freepik--Character--inject-10"><path d="M189.15,90.39h0a8,8,0,0,1-2.94-5.69c-.22-3.24-.5-7.73-.5-8.76,0-1.64,0-5.31-2.34-4.27s-3.11,6.54-2.9,9.7c0,0-11.81-12.62-13.21-13.87s-3.47-1.51-4.06,0,1.06,4.26,6.68,11.41c0,0-3.12-.21-3.6,3.5,0,0-3.12,1-1.88,4.66,0,0-3.46,1.62-.76,5.49S181,102.69,181,102.69Z" style="fill:#ffa8a7"></path><path d="M189.68,89.43s-8.74,10.44-10.75,15.16l27.94,19.94a19.81,19.81,0,0,0,14.85,3.41L255,122.31,266.3,99.68h-3.87a31.25,31.25,0,0,0-6,.58l-38,7.5Z" style="fill:#37474f"></path><path d="M265,344.68h4.36s2.17,1.25,2,5,.46,9.16.54,11.52-3.14,4.53-8,4.11-9.3-.82-12.68,1S239.58,373,232,368s-4.28-8.62-3.35-8.57,14.07-3.49,17.89-6.35,9.93-8.11,9.93-8.11Z" style="fill:#263238"></path><path d="M256.45,336.09v11.82s1.51,2.36,6.54,1.73,6.32-2.93,6.32-2.93V336.09Z" style="fill:#ffa8a7"></path><path d="M309,361.59s5.71-.63,6.19,2.88,1.43,11.4-.16,13.38-6,5.88-7.17,7.88-7,11.87-17.18,12.74-12.39-7.55-9-10.39S294,379.2,296,373.59a62.72,62.72,0,0,1,4.92-10.32Z" style="fill:#263238"></path><path d="M300.42,355.79l.69,10.8s4.54,5.4,12-.9a2.26,2.26,0,0,0,.81-1.88L313.3,354Z" style="fill:#ffa8a7"></path><path d="M251.19,191.25,249.71,273l2.87,68.8s9.51,4.81,22.17,0L279,274.14l5.36-77.68Z" style="fill:#37474f"></path><polygon points="277.15 233.53 278.97 274.14 281.77 233.53 277.15 233.53" style="fill:#263238"></polygon><path d="M281.52,237.22,283.19,213l-18.36-.37C264.07,211.65,266,225.41,281.52,237.22Z" style="fill:#263238"></path><path d="M257.53,200.8s4.3,19.84,22.17,27.68L284,289.12a19.86,19.86,0,0,0,.32,2.44l13.34,68.09s7.13,6.41,19.82,0L317,302.32a63.06,63.06,0,0,0-3.63-20.58h0L312,200.8Z" style="fill:#37474f"></path><path d="M261.76,192.58s5,15.26,30.77,9.89V116.88H261.76Z" style="fill:#f0f0f0"></path><path d="M264.24,58.2s-10.32,4.15-4.81,20.16Z" style="fill:#263238"></path><polygon points="270.53 116.05 271.94 123.35 275.34 124.53 283.65 118.3 270.53 116.05" style="fill:#455a64"></polygon><path d="M293.34,89.43V106s-10.27,14.18-18.59,14.18V99Z" style="fill:#ffa8a7"></path><path d="M274.75,104.63c6.24-2,12.69-6.15,14.71-11.56a18,18,0,0,0,.59-1.94L274.75,99Z" style="fill:#f28f8f"></path><path d="M274.75,120.14l.05-19.89s-3.23-.83-4.64.2-9,22.24-9,22.24,7.63-4.85,9-5.19,4.64,3.57,4.64,3.57Z" style="fill:#e0e0e0"></path><path d="M271.51,100.64s-8,15.29-8,27.87v84.35s-10,.16-15.34-7.21V129c0-7,3.78-24.19,18.11-29.28Z" style="fill:#455a64"></path><path d="M267.7,99.93,258,111.15a2.21,2.21,0,0,0-.39,2.28l2.68,6.81-4.57,7.63a3.54,3.54,0,0,0-.28,3l8.11,21.85V128.51c0-12.58,8-27.87,8-27.87Z" style="fill:#37474f"></path><path d="M276.32,58.68c-5.44,0-15.76,2.25-16.64,14.74s-.34,28,10.11,28.89c7.26.61,20.48-4.69,23.55-12.88S296.07,58.68,276.32,58.68Z" style="fill:#ffa8a7"></path><path d="M292,83.26s-3-1.91-2.07-8.35-2-8.9-4.52-8.82-17.57,3.45-23.17-2.8S258.67,51,265.58,51c4.21,0,8.25,3.11,14.61,3.23s16.32-.87,17,9.47c0,0,6.07-1.66,4.14,9.93s-4.57,19.44-8.06,21.91V86.67Z" style="fill:#263238"></path><path d="M292,83.26s1.32-5.93,5.76-5.93,4.35,4.57,3.79,7.62-2.78,6-5.73,6A4.06,4.06,0,0,1,292,88.23Z" style="fill:#ffa8a7"></path><path d="M296.66,64.13l4.52-2.81s-2.26-1.9-3.58-.52A4.07,4.07,0,0,0,296.66,64.13Z" style="fill:#263238"></path><polygon points="270.73 80.13 270.73 89.11 265.47 87.49 270.73 80.13" style="fill:#f28f8f"></polygon><path d="M278.41,81.68a1.83,1.83,0,1,1-1.83-1.83A1.83,1.83,0,0,1,278.41,81.68Z" style="fill:#263238"></path><path d="M266.37,80.4a1.83,1.83,0,1,1-1.83-1.83A1.83,1.83,0,0,1,266.37,80.4Z" style="fill:#263238"></path><path d="M262.32,76.59l3.57-2.12s-1.37-1.43-2.74-.57S262.32,76.59,262.32,76.59Z" style="fill:#263238"></path><path d="M277.53,76l3.23,2.62s.86-1.78-.41-2.77S277.53,76,277.53,76Z" style="fill:#263238"></path><path d="M268.25,92.75a7.85,7.85,0,0,0,4.93-1.32s.34,2.59-1.84,3.09S268.25,92.75,268.25,92.75Z" style="fill:#f28f8f"></path><path d="M274.75,120.14s12.88-6.42,18.59-14.18v-4.11l.11,0a6.11,6.11,0,0,1,3.77,3.3l2.64,5.75-11.63,19.33s-6.26-11-8.47-10.87a14.5,14.5,0,0,0-5,1.68Z" style="fill:#e0e0e0"></path><path d="M298.71,108.43,283.59,134.3a3.21,3.21,0,0,0-.44,1.63V216.1s16.67,7.35,30.14-3.72V130.75l2-10.91S304.09,110.91,298.71,108.43Z" style="fill:#455a64"></path><path d="M302.34,109.87l-4.33-3,.05.1a3,3,0,0,1-.14,2.79L283.59,134.3a3.21,3.21,0,0,0-.44,1.63v24.94l11-17.61a3,3,0,0,0,.12-3l-3.56-6.82,9.32-5.39a3,3,0,0,0,1.48-2.32l1.35-14.8A1.18,1.18,0,0,0,302.34,109.87Z" style="fill:#37474f"></path><path d="M269.35,128.35s-3.53,37-3.4,51.59l5.78,11.31,7.24-8-4.29-53Z" style="fill:#37474f"></path><path d="M270.31,119.68s6.66,1,9.2,2.49c2.08,1.18-1.87,5.82-3.39,7.48a1.93,1.93,0,0,1-1.44.64c-1.51,0-4.61-.24-6.21-2.07C267.54,127.16,267.73,119.21,270.31,119.68Z" style="fill:#455a64"></path><polygon points="245.34 236.15 173.75 194.82 214.98 170.39 286.57 211.72 245.34 236.15" style="fill:#BA68C8"></polygon><polygon points="245.34 236.15 173.75 194.82 214.98 170.39 286.57 211.72 245.34 236.15" style="opacity:0.1"></polygon><polygon points="245.34 236.15 214.98 170.39 286.57 211.72 245.34 236.15" style="opacity:0.30000000000000004"></polygon><path d="M235.81,121.33c-2.28-2.2-3-5.18-.15-8.12s7-3.54,9.26-1.34,1.85,6.36-1,9.3S238.1,123.53,235.81,121.33Z" style="fill:#BA68C8"></path><path d="M235.81,121.33c-2.28-2.2-3-5.18-.15-8.12s7-3.54,9.26-1.34,1.85,6.36-1,9.3S238.1,123.53,235.81,121.33Z" style="opacity:0.2"></path><path d="M237.11,117.79c.59-.57,3,.12,2.3,2.33,0,0-3.5,4.53-5.34,7.29-.42.63-3.66-.56-2.53-2.58A35.11,35.11,0,0,1,237.11,117.79Z" style="fill:#BA68C8"></path><path d="M223.22,164.77h0a.78.78,0,0,1-.77-.8c.37-24.54,9.25-37.61,9.63-38.15a.78.78,0,1,1,1.29.89c-.09.13-9,13.26-9.35,37.29A.77.77,0,0,1,223.22,164.77Z" style="fill:#BA68C8"></path><g style="opacity:0.5"><path d="M223.22,164.77h0a.78.78,0,0,1-.77-.8c.37-24.54,9.25-37.61,9.63-38.15a.78.78,0,1,1,1.29.89c-.09.13-9,13.26-9.35,37.29A.77.77,0,0,1,223.22,164.77Z"></path></g><path d="M177.74,188.22l41.06-23.84v-3.91a7.69,7.69,0,0,0-10.09-7.3L191,159s-9.83,2.25-9.83-9.28l-3.42,1.89Z" style="fill:#BA68C8"></path><path d="M177.74,188.22l41.06-23.84v-3.91a7.69,7.69,0,0,0-10.09-7.3L191,159s-9.83,2.25-9.83-9.28l-3.42,1.89Z" style="opacity:0.30000000000000004"></path><path d="M191,159l17.72-5.84a7.64,7.64,0,0,1,5.68.36,7.64,7.64,0,0,0-7.38-1.45l-17.71,5.84a9.66,9.66,0,0,1-5.46-.54C186.75,160,191,159,191,159Z" style="fill:#BA68C8"></path><g style="opacity:0.5"><path d="M191,159l17.72-5.84a7.64,7.64,0,0,1,5.68.36,7.64,7.64,0,0,0-7.38-1.45l-17.71,5.84a9.66,9.66,0,0,1-5.46-.54C186.75,160,191,159,191,159Z"></path></g><polygon points="218.8 164.38 276.29 197.85 239.53 219.36 181.75 186.85 218.8 164.38" style="fill:#BA68C8"></polygon><polygon points="218.8 164.38 276.29 197.85 239.53 219.36 181.75 186.85 218.8 164.38" style="opacity:0.1"></polygon><polygon points="242.23 223.1 183.72 189.32 183.72 195.83 242.23 229.61 242.23 223.1" style="fill:#BA68C8"></polygon><polygon points="242.23 223.1 183.72 189.32 183.72 195.83 242.23 229.61 242.23 223.1" style="opacity:0.30000000000000004"></polygon><polygon points="242.23 223.1 276.18 203.15 276.18 209.66 242.23 229.61 242.23 223.1" style="fill:#BA68C8"></polygon><polygon points="242.23 223.1 276.18 203.15 276.18 209.66 242.23 229.61 242.23 223.1" style="opacity:0.5"></polygon><polygon points="183.83 144.71 173.75 150.82 173.75 186.06 245.51 227.65 245.51 191.05 235.48 175.3 183.83 144.71" style="fill:#BA68C8"></polygon><polygon points="183.83 144.71 187.25 142.82 238.91 173.41 235.48 175.3 183.83 144.71" style="fill:#BA68C8"></polygon><polygon points="183.83 144.71 187.25 142.82 238.91 173.41 235.48 175.3 183.83 144.71" style="opacity:0.1"></polygon><polygon points="235.48 175.3 238.91 173.41 248.93 189.16 245.51 191.05 235.48 175.3" style="fill:#BA68C8"></polygon><polygon points="235.48 175.3 238.91 173.41 248.93 189.16 245.51 191.05 235.48 175.3" style="opacity:0.30000000000000004"></polygon><path d="M245.51,227.65l41.06-23.84v-3.9a7.69,7.69,0,0,0-10.09-7.31l-17.72,5.84s-9.83,2.26-9.83-9.28l-3.42,1.89Z" style="fill:#BA68C8"></path><path d="M245.51,227.65l41.06-23.84v-3.9a7.69,7.69,0,0,0-10.09-7.31l-17.72,5.84s-9.83,2.26-9.83-9.28l-3.42,1.89Z" style="opacity:0.30000000000000004"></path><path d="M258.76,198.44l17.72-5.84a7.64,7.64,0,0,1,5.68.36,7.64,7.64,0,0,0-7.38-1.45l-17.71,5.84a9.56,9.56,0,0,1-5.46-.54C254.52,199.41,258.76,198.44,258.76,198.44Z" style="fill:#BA68C8"></path><g style="opacity:0.5"><path d="M258.76,198.44l17.72-5.84a7.64,7.64,0,0,1,5.68.36,7.64,7.64,0,0,0-7.38-1.45l-17.71,5.84a9.56,9.56,0,0,1-5.46-.54C254.52,199.41,258.76,198.44,258.76,198.44Z"></path></g><polygon points="173.75 194.82 173.75 382.7 245.34 424.03 245.34 236.15 173.75 194.82" style="fill:#BA68C8"></polygon><polygon points="229.09 254.11 220.05 238.45 220.08 238.43 195.77 224.4 195.8 224.45 186.76 229.67 186.76 360.32 195.8 375.98 220.05 389.98 229.09 384.76 229.09 254.11" style="fill:#BA68C8"></polygon><polygon points="229.09 254.11 220.05 238.45 220.08 238.43 195.77 224.4 195.8 224.45 186.76 229.67 186.76 360.32 195.8 375.98 220.05 389.98 229.09 384.76 229.09 254.11" style="fill:#fff;opacity:0.5"></polygon><path d="M286.57,211.72v47.21h0a41,41,0,0,0-19.89,35.13V411.43L245.34,424V236.15Z" style="fill:#BA68C8"></path><path d="M286.57,211.72v47.21h0a41,41,0,0,0-19.89,35.13V411.43L245.34,424V236.15Z" style="opacity:0.30000000000000004"></path><path d="M288.75,197.42s-7.59,4.54-10.46,6.2-4.2,2.73-3.62,4.4,5.28.91,8.72-.14c0,0-6.06,4.7-10.55,7.56s-4.42,4.51-2.67,6.23,9,4.61,14.06,2.92,10.12-6.26,15.36-15.67C299.59,208.92,298.5,197.67,288.75,197.42Z" style="fill:#ffa8a7"></path><path d="M315.27,119.84s-15.2,10.92-6.95,32.11l8.24,21.18-28.95,24.25s10,4,12.13,12.65l30.69-22.42a16.94,16.94,0,0,0,6.1-19C331.15,152.3,321.25,124.37,315.27,119.84Z" style="fill:#37474f"></path></g><g id="freepik--Plants--inject-10"><path d="M98.71,333.1s-14.56-14.22-6.27-38c4.64-13.35,20-23.16,28.8-24.08a40.89,40.89,0,0,0-6.85,11.55l-11,7.34,10.15-3.18-2.16,8.69s-9.44,5.7-10.84,6.95l10.17-2.66S109.9,324.26,98.71,333.1Z" style="fill:#BA68C8"></path><path d="M98.71,333.1s-14.56-14.22-6.27-38c4.64-13.35,20-23.16,28.8-24.08a40.89,40.89,0,0,0-6.85,11.55l-11,7.34,10.15-3.18-2.16,8.69s-9.44,5.7-10.84,6.95l10.17-2.66S109.9,324.26,98.71,333.1Z" style="opacity:0.4"></path><path d="M98.71,333.1s-7.54-29.76,3.62-47.11C102.33,286,89.25,301.3,98.71,333.1Z" style="fill:#fff"></path><path d="M115.38,337.13l-17.82-.23h-.18l-17.82.23s-.2,21.95,6.56,30.88h0c1.87,2.37,6.25,4,11.35,4s9.49-1.67,11.35-4.05C115.58,359.06,115.38,337.13,115.38,337.13Z" style="fill:#37474f"></path><ellipse cx="97.47" cy="337.13" rx="17.91" ry="9.61" style="fill:#455a64"></ellipse><path d="M97.47,334.58c6.16,0,11.38,2,13.22,4.71a3.84,3.84,0,0,0,.71-2.16c0-3.8-6.24-6.88-13.93-6.88s-13.93,3.08-13.93,6.88a3.92,3.92,0,0,0,.71,2.16C86.09,336.55,91.31,334.58,97.47,334.58Z" style="fill:#263238"></path><path d="M97.47,334.58c-6.16,0-11.38,2-13.22,4.71C86.09,342,91.31,344,97.47,344s11.38-2,13.22-4.71C108.85,336.55,103.63,334.58,97.47,334.58Z" style="fill:#e0e0e0"></path><path d="M97.69,340.48s-6.9-.27-12.82-9.44c-2.44-3.78-3.62-5.76-3.62-5.76l9.62-.72-10.78-2.69L75,314.08l9-.66s-6.67-2.34-11.42-2.37c0,0-8.25-14.57-10.67-16.65a46.79,46.79,0,0,1,32.59,16.19C108,326.63,99.7,340.89,97.69,340.48Z" style="fill:#BA68C8"></path><path d="M97.69,340.48s4.32-26-23.23-41.64C74.46,298.84,103.05,312.57,97.69,340.48Z" style="fill:#fff"></path><path d="M97.69,340.48s6.25.41,12.46-7.31c2.55-3.18,3.8-4.86,3.8-4.86l-8.6-1.55,10-1.42,5.32-6.54-8-1.44s6.23-1.48,10.52-1.06c0,0,8.82-12.37,11.19-14a42.44,42.44,0,0,0-30.93,11.54C89.68,327,95.84,340.66,97.69,340.48Z" style="fill:#BA68C8"></path><path d="M97.69,340.48s6.25.41,12.46-7.31c2.55-3.18,3.8-4.86,3.8-4.86l-8.6-1.55,10-1.42,5.32-6.54-8-1.44s6.23-1.48,10.52-1.06c0,0,8.82-12.37,11.19-14a42.44,42.44,0,0,0-30.93,11.54C89.68,327,95.84,340.66,97.69,340.48Z" style="opacity:0.2"></path><path d="M97.69,340.48s-1.45-23.87,24.88-35.38C122.57,305.1,95.48,314.8,97.69,340.48Z" style="fill:#fff"></path><path d="M252.22,436.69s-14.56-14.22-6.28-38c4.65-13.36,20-23.16,28.8-24.08a41.15,41.15,0,0,0-6.85,11.55l-11,7.34L267,390.28,264.84,399s-9.44,5.71-10.83,7l10.17-2.66S263.4,427.85,252.22,436.69Z" style="fill:#BA68C8"></path><path d="M252.22,436.69s-14.56-14.22-6.28-38c4.65-13.36,20-23.16,28.8-24.08a41.15,41.15,0,0,0-6.85,11.55l-11,7.34L267,390.28,264.84,399s-9.44,5.71-10.83,7l10.17-2.66S263.4,427.85,252.22,436.69Z" style="opacity:0.4"></path><path d="M252.22,436.69s-7.54-29.76,3.61-47.12C255.83,389.57,242.76,404.89,252.22,436.69Z" style="fill:#fff"></path><path d="M268.88,440.72l-17.81-.23h-.19l-17.81.23s-.2,21.95,6.56,30.88h0c1.87,2.37,6.24,4,11.34,4s9.5-1.67,11.36-4.06C269.08,462.65,268.88,440.72,268.88,440.72Z" style="fill:#37474f"></path><ellipse cx="250.97" cy="440.72" rx="17.91" ry="9.61" style="fill:#455a64"></ellipse><path d="M251,438.17c6.17,0,11.38,2,13.22,4.71a3.85,3.85,0,0,0,.72-2.16c0-3.8-6.24-6.88-13.94-6.88S237,436.92,237,440.72a3.85,3.85,0,0,0,.72,2.16C239.6,440.14,244.81,438.17,251,438.17Z" style="fill:#263238"></path><path d="M251,438.17c-6.16,0-11.37,2-13.21,4.71,1.84,2.74,7.05,4.71,13.21,4.71s11.38-2,13.22-4.71C262.35,440.14,257.14,438.17,251,438.17Z" style="fill:#e0e0e0"></path><path d="M251.19,444.07s-6.9-.27-12.82-9.44c-2.44-3.78-3.62-5.76-3.62-5.76l9.62-.72-10.77-2.69-5.09-7.79,8.94-.67s-6.66-2.33-11.42-2.36c0,0-8.25-14.57-10.66-16.65A46.79,46.79,0,0,1,248,414.18C261.52,430.22,253.21,444.48,251.19,444.07Z" style="fill:#BA68C8"></path><path d="M251.19,444.07s-6.9-.27-12.82-9.44c-2.44-3.78-3.62-5.76-3.62-5.76l9.62-.72-10.77-2.69-5.09-7.79,8.94-.67s-6.66-2.33-11.42-2.36c0,0-8.25-14.57-10.66-16.65A46.79,46.79,0,0,1,248,414.18C261.52,430.22,253.21,444.48,251.19,444.07Z" style="fill:#fff;opacity:0.3"></path><path d="M251.19,444.07s4.32-26-23.23-41.64C228,402.43,256.55,416.16,251.19,444.07Z" style="fill:#fff"></path><path d="M251.19,444.07s6.26.4,12.46-7.31c2.56-3.18,3.81-4.86,3.81-4.86l-8.61-1.55,10-1.42,5.33-6.54-8-1.45s6.23-1.47,10.53-1.05c0,0,8.81-12.38,11.19-14a42.42,42.42,0,0,0-30.93,11.54C243.18,430.6,249.34,444.25,251.19,444.07Z" style="fill:#BA68C8"></path><path d="M251.19,444.07s6.26.4,12.46-7.31c2.56-3.18,3.81-4.86,3.81-4.86l-8.61-1.55,10-1.42,5.33-6.54-8-1.45s6.23-1.47,10.53-1.05c0,0,8.81-12.38,11.19-14a42.42,42.42,0,0,0-30.93,11.54C243.18,430.6,249.34,444.25,251.19,444.07Z" style="opacity:0.2"></path><path d="M251.19,444.07s-1.44-23.87,24.88-35.38C276.07,408.69,249,418.38,251.19,444.07Z" style="fill:#fff"></path></g></svg>